<svg xmlns="http://www.w3.org/2000/svg" width="199.832" height="45" viewBox="0 0 199.832 45"><defs><style>.a{fill:#fff;}</style></defs><path class="a" d="M90.744,19.878h4.64V42.229h-4.64Z" transform="translate(-42.559 -9.36)"/><path class="a" d="M104.324,40.332a8.121,8.121,0,1,1,8.12,8.121H112.4a8.012,8.012,0,0,1-8.075-7.949C104.323,40.447,104.324,40.389,104.324,40.332Zm11.632,0a3.527,3.527,0,1,0-3.527,3.62,3.435,3.435,0,0,0,3.5-3.367c0-.085,0-.169,0-.253Z" transform="translate(-48.941 -15.141)"/><path class="a" d="M154.459,32.779V47.334c0,5.136-4.022,7.317-8.09,7.317a7.735,7.735,0,0,1-7.255-3.712l3.913-2.258a3.511,3.511,0,0,0,3.5,1.933,3.094,3.094,0,0,0,3.449-2.692,3.137,3.137,0,0,0,.017-.587V45.927a5.459,5.459,0,0,1-4.47,1.979,7.734,7.734,0,1,1,0-15.468,5.462,5.462,0,0,1,4.47,1.98V32.871Zm-4.47,7.347a3.712,3.712,0,1,0-3.864,3.554c.05,0,.1,0,.151,0a3.464,3.464,0,0,0,3.7-3.207C149.99,40.36,149.992,40.243,149.989,40.126Z" transform="translate(-64.639 -15.312)"/><path class="a" d="M173.972,40.332a8.12,8.12,0,1,1,8.12,8.121h-.015a8.028,8.028,0,0,1-8.106-7.949C173.971,40.447,173.971,40.389,173.972,40.332Zm11.631,0a3.527,3.527,0,1,0-3.511,3.62,3.434,3.434,0,0,0,3.5-3.367c0-.085,0-.169,0-.253Z" transform="translate(-81.614 -15.141)"/><path class="a" d="M208.419,22.98a2.753,2.753,0,1,1,2.753,2.754h0A2.784,2.784,0,0,1,208.419,22.98Zm.448,4.1h4.64V42.392h-4.64Z" transform="translate(-97.75 -9.524)"/><path class="a" d="M240.632,40.361a7.734,7.734,0,0,1-7.329,8.118l-.049,0a5.753,5.753,0,0,1-4.64-1.871v7.564h-4.64V32.7h4.64v1.438a5.739,5.739,0,0,1,4.64-1.856,7.734,7.734,0,0,1,7.378,8.074Zm-4.641,0a3.65,3.65,0,1,0-3.635,3.743A3.5,3.5,0,0,0,236,40.759,3.323,3.323,0,0,0,235.991,40.361Z" transform="translate(-105.072 -15.237)"/><path class="a" d="M270.365,43.43c0,3.527-3.094,5.027-6.373,5.027a6.714,6.714,0,0,1-6.59-3.651l3.991-2.258a2.505,2.505,0,0,0,2.582,1.81c1.1,0,1.656-.34,1.656-.959,0-1.685-7.533-.788-7.533-6.094,0-3.341,2.815-5.011,6-5.011a6.713,6.713,0,0,1,6.064,3.264l-3.991,2.1a2.257,2.257,0,0,0-2.057-1.346c-.8,0-1.284.309-1.284.851C262.832,38.929,270.365,37.769,270.365,43.43Z" transform="translate(-120.744 -15.176)"/><path class="a" d="M300.351,33.083V48.4h-4.64V46.957a5.272,5.272,0,0,1-4.362,1.9c-3.094,0-5.739-2.211-5.739-6.341V33.083h4.64v8.739a2.538,2.538,0,0,0,2.272,2.776,2.621,2.621,0,0,0,.4.009c1.67,0,2.846-.99,2.846-3.094v-8.43Z" transform="translate(-133.982 -15.549)"/><path class="a" d="M342.353,38.611v9.405h-4.641v-9c0-1.546-.727-2.506-2.2-2.506s-2.4,1.068-2.4,2.877v8.631h-4.64v-9c0-1.546-.726-2.506-2.2-2.506s-2.4,1.068-2.4,2.877v8.631h-4.64V32.7h4.64V34.11A4.733,4.733,0,0,1,328,32.285,4.532,4.532,0,0,1,332,34.3a5.043,5.043,0,0,1,4.439-2.011C340.064,32.285,342.353,34.791,342.353,38.611Z" transform="translate(-149.822 -15.167)"/><path class="a" d="M20.727,6.549V0H0V45H20.727V38.45a15.95,15.95,0,1,1,0-31.9Z"/><path class="a" d="M38.886,12.333V44.185a15.926,15.926,0,1,0,0-31.852Z" transform="translate(-18.159 -5.759)"/><path class="a" d="M366.931,20.14a3.4,3.4,0,1,1-3.4,3.4A3.4,3.4,0,0,1,366.931,20.14Z" transform="translate(-170.502 -9.452)"/></svg>